<?xml version="1.0" encoding="UTF-8"?>
<svg id="Layer_1" xmlns="http://www.w3.org/2000/svg" version="1.1" viewBox="0 0 132 132">
  <!-- Generator: Adobe Illustrator 29.5.1, SVG Export Plug-In . SVG Version: 2.1.0 Build 141)  -->
  <defs>
    <style>
      .st0, .st1, .st2, .st3, .st4, .st5 {
        opacity: .8;
      }

      .st0, .st2 {
        fill: #2ab6ea;
      }

      .st1, .st2, .st4 {
        stroke: #000;
        stroke-miterlimit: 10;
        stroke-width: 3px;
      }

      .st1, .st3 {
        fill: #e4185b;
      }

      .st4, .st5 {
        fill: #45b649;
      }
    </style>
  </defs>
  <g>
    <path d="M8.8,200.9c0-12,8.6-20.4,20.3-20.4s11.9,2.5,15.3,7.4l-2.8,2.1c-2.9-4.1-7.4-6-12.4-6-9.5,0-16.4,6.8-16.4,16.9s6.9,16.9,16.4,16.9,9.5-1.9,12.4-6l2.8,2.1c-3.3,4.9-8.9,7.4-15.3,7.4-11.8,0-20.3-8.5-20.3-20.4Z"/>
    <path d="M91.3,197.5v23.5h-3.9v-23.2c0-9.1-4.9-13.9-13-13.9s-15.3,6.1-15.3,15.6v21.4h-3.9v-57.2h3.9v25.3c2.8-5.5,8.3-8.7,15.8-8.7s16.3,5.8,16.3,17Z"/>
    <path d="M102.8,200.9c0-11.9,8.6-20.4,20.1-20.4s20.1,8.5,20.1,20.4-8.6,20.4-20.1,20.4-20.1-8.5-20.1-20.4ZM139.1,200.9c0-10.1-6.9-16.9-16.2-16.9s-16.2,6.9-16.2,16.9,6.9,16.9,16.2,16.9,16.2-6.9,16.2-16.9Z"/>
    <path d="M174,180.5v3.8c-.3,0-.6,0-.9,0-8.9,0-14.3,5.9-14.3,15.9v21h-3.9v-40.2h3.7v8.8c2.5-5.9,7.8-9.1,15.3-9.1Z"/>
    <path d="M220,163.9v57.2h-3.8v-9.5c-3.2,6.2-9.2,9.8-16.5,9.8-11.3,0-19.9-8.4-19.9-20.4s8.6-20.4,19.9-20.4,13.2,3.5,16.4,9.6v-26.3h3.9ZM216.2,200.9c0-10.1-6.9-16.9-16.2-16.9s-16.2,6.9-16.2,16.9,6.9,16.9,16.2,16.9,16.2-6.9,16.2-16.9Z"/>
    <path d="M247.7,163.6c2.9,0,6,.8,7.9,2.6l-1.5,2.9c-1.6-1.5-3.9-2.2-6.2-2.2-5,0-7.5,2.8-7.5,8.1v5.9h12.9v3.3h-12.8v36.9h-3.9v-36.9h-7.4v-3.3h7.4v-6.2c0-6.7,4-11.1,11.2-11.1ZM264.9,163.9v57.2h-3.9v-57.2h3.9Z"/>
    <path d="M276.7,200.9c0-11.9,8.6-20.4,20.1-20.4s20.1,8.5,20.1,20.4-8.6,20.4-20.1,20.4-20.1-8.5-20.1-20.4ZM313,200.9c0-10.1-6.9-16.9-16.2-16.9s-16.2,6.9-16.2,16.9,6.9,16.9,16.2,16.9,16.2-6.9,16.2-16.9Z"/>
    <path d="M385.2,180.8l-15.3,40.2h-3.6l-13.6-34.9-13.6,34.9h-3.5l-15.3-40.2h3.7l13.4,35.9,13.7-35.9h3.3l13.6,35.8,13.6-35.8h3.5Z"/>
  </g>
  <path class="st1" d="M58.6,66c0,13.8-9.6,25-24.8,25s-24.8-11.2-24.8-25,10.3-25,24.8-25,24.8,11.2,24.8,25Z"/>
  <path class="st4" d="M123.1,65.9c0,13.6-8.6,25.6-24.9,25.1-15.2-.5-24.6-11.5-24.6-25.1s9.2-25,24.8-25,24.7,9.5,24.7,25Z"/>
  <path class="st2" d="M90.7,66.1c0,13.6-10.6,25-24.7,25s-24.5-11.4-24.5-25,9.8-25,24.5-25,24.7,11.4,24.7,25Z"/>
  <path class="st3" d="M143,200.9c0,11.3-7.8,20.4-20.1,20.4s-20.1-8.4-20.1-20.4,8.3-20.5,20.1-20.4,20.1,9.2,20.1,20.4Z"/>
  <path class="st5" d="M316.9,200.9c0,11.1-7.6,20.5-20.2,20.5-12.5,0-20-9.4-20-20.5s7.5-20.4,20.1-20.4,20.1,9.7,20.1,20.4Z"/>
  <path class="st0" d="M218.8,200.8c0,11.7-7.7,20.5-19.1,20.5s-19.9-8.9-19.9-20.4,7.7-20.4,19.9-20.4,19.1,9.1,19.1,20.3Z"/>
</svg>